<?xml version="1.0" standalone="no"?>
<!DOCTYPE svg PUBLIC "-//W3C//DTD SVG 20010904//EN"
 "http://www.w3.org/TR/2001/REC-SVG-20010904/DTD/svg10.dtd">
<svg version="1.0" xmlns="http://www.w3.org/2000/svg"
 width="128.000000pt" height="128.000000pt" viewBox="0 0 128.000000 128.000000"
 preserveAspectRatio="xMidYMid meet">

<g transform="translate(0.000000,128.000000) scale(0.100000,-0.100000)"
fill="#d04643" stroke="none">
<path d="M711 1231 c-21 -22 -48 -64 -61 -93 -13 -29 -25 -55 -27 -57 -1 -2
-18 10 -38 28 -37 32 -48 36 -129 45 -27 4 -61 13 -74 22 -25 16 -25 16 -18
-12 15 -61 67 -91 189 -109 20 -3 37 -11 37 -17 0 -5 -7 -7 -16 -4 -35 14 -89
-13 -149 -75 -33 -33 -69 -64 -80 -69 -17 -6 -14 -9 20 -19 54 -15 89 -14 133
5 46 19 87 57 102 95 19 46 28 34 17 -22 -15 -77 4 -149 55 -202 l41 -42 9 40
c14 59 4 163 -20 218 -11 26 -19 47 -17 47 2 0 27 -23 55 -50 78 -79 156 -106
227 -79 27 10 27 11 8 21 -11 6 -42 31 -69 55 -27 24 -62 47 -78 50 -50 10
-39 20 21 19 62 -1 82 10 121 64 l18 25 -107 0 c-93 0 -111 -3 -145 -23 -21
-13 -40 -21 -42 -19 -9 9 29 108 55 145 25 34 27 41 14 46 -10 4 -28 -7 -52
-33z"/>
<path d="M269 1071 c-148 -58 -227 -175 -249 -371 -23 -205 39 -374 191 -515
122 -114 263 -169 434 -168 171 0 313 55 430 164 106 100 163 222 186 398 28
221 -40 390 -189 465 -32 17 -33 17 -58 -13 -14 -16 -35 -33 -46 -37 -20 -6
-18 -8 18 -27 21 -11 51 -23 66 -26 l28 -6 -24 -52 c-17 -36 -35 -57 -58 -69
-41 -21 -129 -22 -161 -1 l-24 16 -12 -72 c-14 -82 -43 -137 -73 -137 -12 0
-40 11 -64 25 -41 24 -53 42 -109 162 0 1 -19 -4 -40 -12 -48 -17 -126 -19
-180 -4 -39 11 -115 76 -115 98 0 6 24 22 54 36 30 14 69 39 86 55 l32 30 -31
29 c-17 16 -31 34 -31 40 0 14 -6 14 -61 -8z"/>
</g>
</svg>
